<?xml version="1.0" encoding="UTF-8" standalone="yes"?>
<!-- Created with sK1/UniConvertor (http://sk1project.org/) -->
<svg xmlns="http://www.w3.org/2000/svg" xmlns:xlink="http://www.w3.org/1999/xlink"
  width="820pt" height="612pt" viewBox="0 0 820 612"
  fill-rule="evenodd">
<g>
<path style="stroke:none; fill:#ffffff" d="M 0 0L 0 612L 0.8 612L 0.8 0.799988L 820 0.799988C 814.08 -1.68396 804.808 0 798.4 0L 749.6 0L 581.6 0L 0 0z"/>
<path style="stroke:none; fill:#f8895b" d="M 0.8 0.799988L 0.8 1.59998L 820 1.59998C 814.08 -0.883972 804.808 0.799988 798.4 0.799988L 750.4 0.799988L 582.4 0.799988L 0.8 0.799988z"/>
<path style="stroke:none; fill:#ed0101" d="M 0.8 1.59998C 3.42642 10.2188 16.7781 17.8928 23.2 24C 44.5466 44.3005 67.1931 63.2479 88.8 83.2712C 160.804 149.997 234.942 214.418 307.2 280.869L 348.8 318.535C 366.068 334.077 382.523 349.303 407.2 349.597C 435.686 349.936 452.562 336.015 472.8 317.736L 513.6 280.869C 585.585 214.67 659.647 150.686 731.2 84.02C 752.753 63.9393 775.383 44.9957 796.8 24.7716C 803.4 18.5417 817.32 10.4005 820 1.59998L 0.8 1.59998z"/>
<path style="stroke:none; fill:#ffcd03" d="M 0.8 4L 0.8 607.2C 19.3194 594.537 35.9563 577.351 52.8 562.524L 144.8 482.524L 285.6 360.124C 303.883 344.035 323.206 328.838 340.8 312L 340.8 311.2C 316.418 286.82 289.587 264.575 264 241.464L 129.6 119.864L 45.6 43.8643C 31.1246 30.7896 17.0726 14.7639 0.8 4M 819.2 4C 740.918 76.1042 661.382 146.925 582.4 218.264C 548.306 249.059 512.487 278.716 480 311.2L 480 312C 497.594 328.838 516.917 344.035 535.2 360.124L 676 482.524L 768 562.524C 784.844 577.351 801.48 594.537 820 607.2L 820 179.2L 820 56L 820 20.8C 820 15.6638 821.2 8.76074 819.2 4z"/>
<path style="stroke:none; fill:#f55201" d="M 2.4 4.79999L 3.2 5.59998L 2.4 4.79999M 817.6 4.79999L 818.4 5.59998L 817.6 4.79999z"/>
<path style="stroke:none; fill:#f66601" d="M 3.2 5.59998L 4 6.40002L 3.2 5.59998M 816.8 5.59998L 817.6 6.40002L 816.8 5.59998z"/>
<path style="stroke:none; fill:#f87901" d="M 4 6.40002L 4.8 7.20001L 4 6.40002M 816 6.40002L 816.8 7.20001L 816 6.40002z"/>
<path style="stroke:none; fill:#f65d01" d="M 11.2 12.8L 12 13.6L 11.2 12.8M 808.8 12.8L 809.6 13.6L 808.8 12.8z"/>
<path style="stroke:none; fill:#f86e01" d="M 12 13.6L 12.8 14.4L 12 13.6M 808 13.6L 808.8 14.4L 808 13.6z"/>
<path style="stroke:none; fill:#f88301" d="M 12.8 14.4L 13.6 15.2L 12.8 14.4M 807.2 14.4L 808 15.2L 807.2 14.4z"/>
<path style="stroke:none; fill:#f55201" d="M 19.2 20L 20 20.8L 19.2 20M 800.8 20L 801.6 20.8L 800.8 20z"/>
<path style="stroke:none; fill:#f66601" d="M 20 20.8L 20.8 21.6L 20 20.8M 800 20.8L 800.8 21.6L 800 20.8z"/>
<path style="stroke:none; fill:#f87901" d="M 20.8 21.6L 21.6 22.4L 20.8 21.6M 799.2 21.6L 800 22.4L 799.2 21.6z"/>
<path style="stroke:none; fill:#f65d01" d="M 28 28L 28.8 28.8L 28 28M 792 28L 792.8 28.8L 792 28z"/>
<path style="stroke:none; fill:#f86e01" d="M 28.8 28.8L 29.6 29.6L 28.8 28.8M 791.2 28.8L 792 29.6L 791.2 28.8z"/>
<path style="stroke:none; fill:#f88301" d="M 29.6 29.6L 30.4 30.4L 29.6 29.6M 790.4 29.6L 791.2 30.4L 790.4 29.6z"/>
<path style="stroke:none; fill:#f55201" d="M 36 35.2L 36.8 36L 36 35.2M 784 35.2L 784.8 36L 784 35.2z"/>
<path style="stroke:none; fill:#f66601" d="M 36.8 36L 37.6 36.8L 36.8 36M 783.2 36L 784 36.8L 783.2 36z"/>
<path style="stroke:none; fill:#f87901" d="M 37.6 36.8L 38.4 37.6L 37.6 36.8M 782.4 36.8L 783.2 37.6L 782.4 36.8z"/>
<path style="stroke:none; fill:#f65d01" d="M 44.8 43.2L 45.6 44L 44.8 43.2M 775.2 43.2L 776 44L 775.2 43.2z"/>
<path style="stroke:none; fill:#f86e01" d="M 45.6 44L 46.4 44.8L 45.6 44M 774.4 44L 775.2 44.8L 774.4 44z"/>
<path style="stroke:none; fill:#f88301" d="M 46.4 44.8L 47.2 45.6L 46.4 44.8M 773.6 44.8L 774.4 45.6L 773.6 44.8z"/>
<path style="stroke:none; fill:#f55201" d="M 52.8 50.4L 53.6 51.2L 52.8 50.4M 767.2 50.4L 768 51.2L 767.2 50.4z"/>
<path style="stroke:none; fill:#f66601" d="M 53.6 51.2L 54.4 52L 53.6 51.2M 766.4 51.2L 767.2 52L 766.4 51.2z"/>
<path style="stroke:none; fill:#f87901" d="M 54.4 52L 55.2 52.8L 54.4 52M 765.6 52L 766.4 52.8L 765.6 52z"/>
<path style="stroke:none; fill:#f65d01" d="M 61.6 58.4L 62.4 59.2L 61.6 58.4M 758.4 58.4L 759.2 59.2L 758.4 58.4z"/>
<path style="stroke:none; fill:#f86e01" d="M 62.4 59.2L 63.2 60L 62.4 59.2M 757.6 59.2L 758.4 60L 757.6 59.2z"/>
<path style="stroke:none; fill:#f88301" d="M 63.2 60L 64 60.8L 63.2 60M 756.8 60L 757.6 60.8L 756.8 60z"/>
<path style="stroke:none; fill:#f55201" d="M 69.6 65.6L 70.4 66.4L 69.6 65.6M 750.4 65.6L 751.2 66.4L 750.4 65.6z"/>
<path style="stroke:none; fill:#f66601" d="M 70.4 66.4L 71.2 67.2L 70.4 66.4M 749.6 66.4L 750.4 67.2L 749.6 66.4z"/>
<path style="stroke:none; fill:#f87901" d="M 71.2 67.2L 72 68L 71.2 67.2M 748.8 67.2L 749.6 68L 748.8 67.2z"/>
<path style="stroke:none; fill:#f44901" d="M 742.4 72.8L 743.2 73.6L 742.4 72.8z"/>
<path style="stroke:none; fill:#f65d01" d="M 78.4 73.6L 79.2 74.4L 78.4 73.6M 741.6 73.6L 742.4 74.4L 741.6 73.6z"/>
<path style="stroke:none; fill:#f86e01" d="M 79.2 74.4L 80 75.2L 79.2 74.4M 740.8 74.4L 741.6 75.2L 740.8 74.4z"/>
<path style="stroke:none; fill:#f88301" d="M 80 75.2L 80.8 76L 80 75.2M 740 75.2L 740.8 76L 740 75.2z"/>
<path style="stroke:none; fill:#f55201" d="M 86.4 80.8L 87.2 81.6L 86.4 80.8M 733.6 80.8L 734.4 81.6L 733.6 80.8z"/>
<path style="stroke:none; fill:#f66601" d="M 87.2 81.6L 88 82.4L 87.2 81.6M 732.8 81.6L 733.6 82.4L 732.8 81.6z"/>
<path style="stroke:none; fill:#f87901" d="M 88 82.4L 88.8 83.2L 88 82.4M 732 82.4L 732.8 83.2L 732 82.4z"/>
<path style="stroke:none; fill:#f44901" d="M 725.6 88L 726.4 88.8L 725.6 88z"/>
<path style="stroke:none; fill:#f65d01" d="M 95.2 88.8L 96 89.6L 95.2 88.8M 724.8 88.8L 725.6 89.6L 724.8 88.8z"/>
<path style="stroke:none; fill:#f86e01" d="M 96 89.6L 96.8 90.4L 96 89.6M 724 89.6L 724.8 90.4L 724 89.6z"/>
<path style="stroke:none; fill:#f88301" d="M 96.8 90.4L 97.6 91.2L 96.8 90.4M 723.2 90.4L 724 91.2L 723.2 90.4z"/>
<path style="stroke:none; fill:#f55201" d="M 103.2 96L 104 96.8L 103.2 96M 716.8 96L 717.6 96.8L 716.8 96z"/>
<path style="stroke:none; fill:#f66601" d="M 104 96.8L 104.8 97.6L 104 96.8M 716 96.8L 716.8 97.6L 716 96.8z"/>
<path style="stroke:none; fill:#f87901" d="M 104.8 97.6L 105.6 98.4L 104.8 97.6M 715.2 97.6L 716 98.4L 715.2 97.6z"/>
<path style="stroke:none; fill:#f44901" d="M 111.2 103.2L 112 104L 111.2 103.2M 708.8 103.2L 709.6 104L 708.8 103.2z"/>
<path style="stroke:none; fill:#f65d01" d="M 112 104L 112.8 104.8L 112 104M 708 104L 708.8 104.8L 708 104z"/>
<path style="stroke:none; fill:#f86e01" d="M 112.8 104.8L 113.6 105.6L 112.8 104.8M 707.2 104.8L 708 105.6L 707.2 104.8z"/>
<path style="stroke:none; fill:#f88301" d="M 113.6 105.6L 114.4 106.4L 113.6 105.6M 706.4 105.6L 707.2 106.4L 706.4 105.6z"/>
<path style="stroke:none; fill:#f55201" d="M 120 111.2L 120.8 112L 120 111.2M 700 111.2L 700.8 112L 700 111.2z"/>
<path style="stroke:none; fill:#f66601" d="M 120.8 112L 121.6 112.8L 120.8 112M 699.2 112L 700 112.8L 699.2 112z"/>
<path style="stroke:none; fill:#f87901" d="M 121.6 112.8L 122.4 113.6L 121.6 112.8M 698.4 112.8L 699.2 113.6L 698.4 112.8z"/>
<path style="stroke:none; fill:#f44901" d="M 128 118.4L 128.8 119.2L 128 118.4M 692 118.4L 692.8 119.2L 692 118.4z"/>
<path style="stroke:none; fill:#f65d01" d="M 128.8 119.2L 129.6 120L 128.8 119.2M 691.2 119.2L 692 120L 691.2 119.2z"/>
<path style="stroke:none; fill:#f86e01" d="M 129.6 120L 130.4 120.8L 129.6 120M 690.4 120L 691.2 120.8L 690.4 120z"/>
<path style="stroke:none; fill:#f88301" d="M 130.4 120.8L 131.2 121.6L 130.4 120.8M 689.6 120.8L 690.4 121.6L 689.6 120.8z"/>
<path style="stroke:none; fill:#f55201" d="M 136.8 126.4L 137.6 127.2L 136.8 126.4M 683.2 126.4L 684 127.2L 683.2 126.4z"/>
<path style="stroke:none; fill:#f66601" d="M 137.6 127.2L 138.4 128L 137.6 127.2M 682.4 127.2L 683.2 128L 682.4 127.2z"/>
<path style="stroke:none; fill:#f87901" d="M 138.4 128L 139.2 128.8L 138.4 128M 681.6 128L 682.4 128.8L 681.6 128z"/>
<path style="stroke:none; fill:#f44901" d="M 144.8 133.6L 145.6 134.4L 144.8 133.6M 675.2 133.6L 676 134.4L 675.2 133.6z"/>
<path style="stroke:none; fill:#f65d01" d="M 145.6 134.4L 146.4 135.2L 145.6 134.4M 674.4 134.4L 675.2 135.2L 674.4 134.4z"/>
<path style="stroke:none; fill:#f86e01" d="M 146.4 135.2L 147.2 136L 146.4 135.2M 673.6 135.2L 674.4 136L 673.6 135.2z"/>
<path style="stroke:none; fill:#f88301" d="M 147.2 136L 148 136.8L 147.2 136M 672.8 136L 673.6 136.8L 672.8 136z"/>
<path style="stroke:none; fill:#f55201" d="M 153.6 141.6L 154.4 142.4L 153.6 141.6M 666.4 141.6L 667.2 142.4L 666.4 141.6z"/>
<path style="stroke:none; fill:#f66601" d="M 154.4 142.4L 155.2 143.2L 154.4 142.4M 665.6 142.4L 666.4 143.2L 665.6 142.4z"/>
<path style="stroke:none; fill:#f87901" d="M 155.2 143.2L 156 144L 155.2 143.2M 664.8 143.2L 665.6 144L 664.8 143.2z"/>
<path style="stroke:none; fill:#f44901" d="M 161.6 148.8L 162.4 149.6L 161.6 148.8M 658.4 148.8L 659.2 149.6L 658.4 148.8z"/>
<path style="stroke:none; fill:#f65d01" d="M 162.4 149.6L 163.2 150.4L 162.4 149.6M 657.6 149.6L 658.4 150.4L 657.6 149.6z"/>
<path style="stroke:none; fill:#f86e01" d="M 163.2 150.4L 164 151.2L 163.2 150.4M 656.8 150.4L 657.6 151.2L 656.8 150.4z"/>
<path style="stroke:none; fill:#f88301" d="M 164 151.2L 164.8 152L 164 151.2M 656 151.2L 656.8 152L 656 151.2z"/>
<path style="stroke:none; fill:#f55201" d="M 170.4 156.8L 171.2 157.6L 170.4 156.8M 649.6 156.8L 650.4 157.6L 649.6 156.8z"/>
<path style="stroke:none; fill:#f66601" d="M 171.2 157.6L 172 158.4L 171.2 157.6M 648.8 157.6L 649.6 158.4L 648.8 157.6z"/>
<path style="stroke:none; fill:#f87901" d="M 172 158.4L 172.8 159.2L 172 158.4M 648 158.4L 648.8 159.2L 648 158.4z"/>
<path style="stroke:none; fill:#f44901" d="M 178.4 164L 179.2 164.8L 178.4 164M 641.6 164L 642.4 164.8L 641.6 164z"/>
<path style="stroke:none; fill:#f65d01" d="M 179.2 164.8L 180 165.6L 179.2 164.8M 640.8 164.8L 641.6 165.6L 640.8 164.8z"/>
<path style="stroke:none; fill:#f86e01" d="M 180 165.6L 180.8 166.4L 180 165.6M 640 165.6L 640.8 166.4L 640 165.6z"/>
<path style="stroke:none; fill:#f88301" d="M 180.8 166.4L 181.6 167.2L 180.8 166.4M 639.2 166.4L 640 167.2L 639.2 166.4z"/>
<path style="stroke:none; fill:#f55201" d="M 187.2 172L 188 172.8L 187.2 172M 632.8 172L 633.6 172.8L 632.8 172z"/>
<path style="stroke:none; fill:#f66601" d="M 188 172.8L 188.8 173.6L 188 172.8M 632 172.8L 632.8 173.6L 632 172.8z"/>
<path style="stroke:none; fill:#f87901" d="M 188.8 173.6L 189.6 174.4L 188.8 173.6M 631.2 173.6L 632 174.4L 631.2 173.6z"/>
<path style="stroke:none; fill:#f44901" d="M 195.2 179.2L 196 180L 195.2 179.2M 624.8 179.2L 625.6 180L 624.8 179.2z"/>
<path style="stroke:none; fill:#f65d01" d="M 196 180L 196.8 180.8L 196 180M 624 180L 624.8 180.8L 624 180z"/>
<path style="stroke:none; fill:#f86e01" d="M 196.8 180.8L 197.6 181.6L 196.8 180.8M 623.2 180.8L 624 181.6L 623.2 180.8z"/>
<path style="stroke:none; fill:#f88301" d="M 197.6 181.6L 198.4 182.4L 197.6 181.6M 622.4 181.6L 623.2 182.4L 622.4 181.6z"/>
<path style="stroke:none; fill:#f55201" d="M 204 187.2L 204.8 188L 204 187.2M 616 187.2L 616.8 188L 616 187.2z"/>
<path style="stroke:none; fill:#f66601" d="M 204.8 188L 205.6 188.8L 204.8 188M 615.2 188L 616 188.8L 615.2 188z"/>
<path style="stroke:none; fill:#f87901" d="M 205.6 188.8L 206.4 189.6L 205.6 188.8M 614.4 188.8L 615.2 189.6L 614.4 188.8z"/>
<path style="stroke:none; fill:#f44901" d="M 212 194.4L 212.8 195.2L 212 194.4M 608 194.4L 608.8 195.2L 608 194.4z"/>
<path style="stroke:none; fill:#f65d01" d="M 212.8 195.2L 213.6 196L 212.8 195.2M 607.2 195.2L 608 196L 607.2 195.2z"/>
<path style="stroke:none; fill:#f86e01" d="M 213.6 196L 214.4 196.8L 213.6 196M 606.4 196L 607.2 196.8L 606.4 196z"/>
<path style="stroke:none; fill:#f88301" d="M 214.4 196.8L 215.2 197.6L 214.4 196.8z"/>
<path style="stroke:none; fill:#f55201" d="M 220.8 202.4L 221.6 203.2L 220.8 202.4M 599.2 202.4L 600 203.2L 599.2 202.4z"/>
<path style="stroke:none; fill:#f66601" d="M 221.6 203.2L 222.4 204L 221.6 203.2M 598.4 203.2L 599.2 204L 598.4 203.2z"/>
<path style="stroke:none; fill:#f87901" d="M 222.4 204L 223.2 204.8L 222.4 204M 597.6 204L 598.4 204.8L 597.6 204z"/>
<path style="stroke:none; fill:#f44901" d="M 228.8 209.6L 229.6 210.4L 228.8 209.6M 591.2 209.6L 592 210.4L 591.2 209.6z"/>
<path style="stroke:none; fill:#f65d01" d="M 229.6 210.4L 230.4 211.2L 229.6 210.4M 590.4 210.4L 591.2 211.2L 590.4 210.4z"/>
<path style="stroke:none; fill:#f86e01" d="M 230.4 211.2L 231.2 212L 230.4 211.2M 589.6 211.2L 590.4 212L 589.6 211.2z"/>
<path style="stroke:none; fill:#f88301" d="M 231.2 212L 232 212.8L 231.2 212z"/>
<path style="stroke:none; fill:#f55201" d="M 237.6 217.6L 238.4 218.4L 237.6 217.6M 582.4 217.6L 583.2 218.4L 582.4 217.6z"/>
<path style="stroke:none; fill:#f66601" d="M 238.4 218.4L 239.2 219.2L 238.4 218.4M 581.6 218.4L 582.4 219.2L 581.6 218.4z"/>
<path style="stroke:none; fill:#f87901" d="M 239.2 219.2L 240 220L 239.2 219.2M 580.8 219.2L 581.6 220L 580.8 219.2z"/>
<path style="stroke:none; fill:#f44901" d="M 245.6 224.8L 246.4 225.6L 245.6 224.8M 574.4 224.8L 575.2 225.6L 574.4 224.8z"/>
<path style="stroke:none; fill:#f65d01" d="M 246.4 225.6L 247.2 226.4L 246.4 225.6M 573.6 225.6L 574.4 226.4L 573.6 225.6z"/>
<path style="stroke:none; fill:#f86e01" d="M 247.2 226.4L 248 227.2L 247.2 226.4M 572.8 226.4L 573.6 227.2L 572.8 226.4z"/>
<path style="stroke:none; fill:#f88301" d="M 248 227.2L 248.8 228L 248 227.2z"/>
<path style="stroke:none; fill:#f55201" d="M 254.4 232.8L 255.2 233.6L 254.4 232.8M 565.6 232.8L 566.4 233.6L 565.6 232.8z"/>
<path style="stroke:none; fill:#f66601" d="M 255.2 233.6L 256 234.4L 255.2 233.6M 564.8 233.6L 565.6 234.4L 564.8 233.6z"/>
<path style="stroke:none; fill:#f87901" d="M 256 234.4L 256.8 235.2L 256 234.4M 564 234.4L 564.8 235.2L 564 234.4z"/>
<path style="stroke:none; fill:#f44901" d="M 262.4 240L 263.2 240.8L 262.4 240M 557.6 240L 558.4 240.8L 557.6 240z"/>
<path style="stroke:none; fill:#f65d01" d="M 263.2 240.8L 264 241.6L 263.2 240.8M 556.8 240.8L 557.6 241.6L 556.8 240.8z"/>
<path style="stroke:none; fill:#f86e01" d="M 264 241.6L 264.8 242.4L 264 241.6M 556 241.6L 556.8 242.4L 556 241.6z"/>
<path style="stroke:none; fill:#f88301" d="M 264.8 242.4L 265.6 243.2L 264.8 242.4z"/>
<path style="stroke:none; fill:#f55201" d="M 271.2 248L 272 248.8L 271.2 248M 548.8 248L 549.6 248.8L 548.8 248z"/>
<path style="stroke:none; fill:#f66601" d="M 272 248.8L 272.8 249.6L 272 248.8M 548 248.8L 548.8 249.6L 548 248.8z"/>
<path style="stroke:none; fill:#f87901" d="M 272.8 249.6L 273.6 250.4L 272.8 249.6M 547.2 249.6L 548 250.4L 547.2 249.6z"/>
<path style="stroke:none; fill:#f44901" d="M 279.2 255.2L 280 256L 279.2 255.2M 540.8 255.2L 541.6 256L 540.8 255.2z"/>
<path style="stroke:none; fill:#f65d01" d="M 280 256L 280.8 256.8L 280 256M 540 256L 540.8 256.8L 540 256z"/>
<path style="stroke:none; fill:#f86e01" d="M 280.8 256.8L 281.6 257.6L 280.8 256.8M 539.2 256.8L 540 257.6L 539.2 256.8z"/>
<path style="stroke:none; fill:#f88301" d="M 281.6 257.6L 282.4 258.4L 281.6 257.6z"/>
<path style="stroke:none; fill:#f55201" d="M 288 263.2L 288.8 264L 288 263.2M 532 263.2L 532.8 264L 532 263.2z"/>
<path style="stroke:none; fill:#f66601" d="M 288.8 264L 289.6 264.8L 288.8 264M 531.2 264L 532 264.8L 531.2 264z"/>
<path style="stroke:none; fill:#f87901" d="M 289.6 264.8L 290.4 265.6L 289.6 264.8M 530.4 264.8L 531.2 265.6L 530.4 264.8z"/>
<path style="stroke:none; fill:#f44901" d="M 296 270.4L 296.8 271.2L 296 270.4M 524 270.4L 524.8 271.2L 524 270.4z"/>
<path style="stroke:none; fill:#f65d01" d="M 296.8 271.2L 297.6 272L 296.8 271.2M 523.2 271.2L 524 272L 523.2 271.2z"/>
<path style="stroke:none; fill:#f86e01" d="M 297.6 272L 298.4 272.8L 297.6 272M 522.4 272L 523.2 272.8L 522.4 272z"/>
<path style="stroke:none; fill:#f55201" d="M 304.8 278.4L 305.6 279.2L 304.8 278.4M 515.2 278.4L 516 279.2L 515.2 278.4z"/>
<path style="stroke:none; fill:#f66601" d="M 305.6 279.2L 306.4 280L 305.6 279.2M 514.4 279.2L 515.2 280L 514.4 279.2z"/>
<path style="stroke:none; fill:#f87901" d="M 306.4 280L 307.2 280.8L 306.4 280M 513.6 280L 514.4 280.8L 513.6 280z"/>
<path style="stroke:none; fill:#f44901" d="M 312.8 285.6L 313.6 286.4L 312.8 285.6M 507.2 285.6L 508 286.4L 507.2 285.6z"/>
<path style="stroke:none; fill:#f65d01" d="M 313.6 286.4L 314.4 287.2L 313.6 286.4M 506.4 286.4L 507.2 287.2L 506.4 286.4z"/>
<path style="stroke:none; fill:#f86e01" d="M 314.4 287.2L 315.2 288L 314.4 287.2M 505.6 287.2L 506.4 288L 505.6 287.2z"/>
<path style="stroke:none; fill:#f55201" d="M 321.6 293.6L 322.4 294.4L 321.6 293.6M 498.4 293.6L 499.2 294.4L 498.4 293.6z"/>
<path style="stroke:none; fill:#f66601" d="M 322.4 294.4L 323.2 295.2L 322.4 294.4M 497.6 294.4L 498.4 295.2L 497.6 294.4z"/>
<path style="stroke:none; fill:#f87901" d="M 323.2 295.2L 324 296L 323.2 295.2M 496.8 295.2L 497.6 296L 496.8 295.2z"/>
<path style="stroke:none; fill:#f44901" d="M 329.6 300.8L 330.4 301.6L 329.6 300.8M 490.4 300.8L 491.2 301.6L 490.4 300.8z"/>
<path style="stroke:none; fill:#f65d01" d="M 330.4 301.6L 331.2 302.4L 330.4 301.6M 489.6 301.6L 490.4 302.4L 489.6 301.6z"/>
<path style="stroke:none; fill:#f86e01" d="M 331.2 302.4L 332 303.2L 331.2 302.4M 488.8 302.4L 489.6 303.2L 488.8 302.4z"/>
<path style="stroke:none; fill:#f55201" d="M 338.4 308.8L 339.2 309.6L 338.4 308.8M 481.6 308.8L 482.4 309.6L 481.6 308.8z"/>
<path style="stroke:none; fill:#f66601" d="M 339.2 309.6L 340 310.4L 339.2 309.6M 480.8 309.6L 481.6 310.4L 480.8 309.6z"/>
<path style="stroke:none; fill:#f87901" d="M 340 310.4L 340.8 311.2L 340 310.4M 480 310.4L 480.8 311.2L 480 310.4z"/>
<path style="stroke:none; fill:#f3c303" d="M 340.8 311.2C 317.377 334.14 291.014 354.464 266.4 376.124C 206.704 428.654 146.096 480.146 86.4 532.676L 22.4 588.226C 15.9654 593.814 1.47859 602.199 0.8 611.2L 820 611.2C 819.32 602.199 804.832 593.814 798.4 588.226L 734.4 532.676C 674.704 480.146 614.096 428.654 554.4 376.124C 529.786 354.464 503.423 334.14 480 311.2L 479.2 311.2C 451.619 338.762 416.958 363.874 377.6 341.699C 363.508 333.76 353.847 320.39 340.8 311.2z"/>
<path style="stroke:none; fill:#f44901" d="M 473.6 316L 474.4 316.8L 473.6 316z"/>
<path style="stroke:none; fill:#f65d01" d="M 347.2 316.8L 348 317.6L 347.2 316.8M 472.8 316.8L 473.6 317.6L 472.8 316.8z"/>
<path style="stroke:none; fill:#f86e01" d="M 348 317.6L 348.8 318.4L 348 317.6M 472 317.6L 472.8 318.4L 472 317.6z"/>
<path style="stroke:none; fill:#f55201" d="M 355.2 324L 356 324.8L 355.2 324M 464.8 324L 465.6 324.8L 464.8 324z"/>
<path style="stroke:none; fill:#f66601" d="M 356 324.8L 356.8 325.6L 356 324.8M 464 324.8L 464.8 325.6L 464 324.8z"/>
<path style="stroke:none; fill:#f47501" d="M 356.8 325.6L 357.6 326.4L 356.8 325.6M 463.2 325.6L 464 326.4L 463.2 325.6z"/>
<path style="stroke:none; fill:#f44901" d="M 456.8 331.2L 457.6 332L 456.8 331.2z"/>
<path style="stroke:none; fill:#f65d01" d="M 364 332L 364.8 332.8L 364 332M 456 332L 456.8 332.8L 456 332z"/>
<path style="stroke:none; fill:#f86e01" d="M 364.8 332.8L 365.6 333.6L 364.8 332.8M 455.2 332.8L 456 333.6L 455.2 332.8z"/>
<path style="stroke:none; fill:#f65d01" d="M 368.8 336L 369.6 336.8L 368.8 336M 451.2 336L 452 336.8L 451.2 336z"/>
<path style="stroke:none; fill:#f47501" d="M 448 338.4L 448.8 339.2L 448 338.4z"/>
<path style="stroke:none; fill:#f44901" d="M 373.6 339.2L 374.4 340L 373.6 339.2z"/>
<path style="stroke:none; fill:#f47501" d="M 376 340.8L 376.8 341.6L 376 340.8z"/>
<path style="stroke:none; fill:#f66601" d="M 444 340.8L 444.8 341.6L 444 340.8z"/>
<path style="stroke:none; fill:#f65d01" d="M 377.6 341.6L 378.4 342.4L 377.6 341.6z"/>
<path style="stroke:none; fill:#f55201" d="M 442.4 341.6L 443.2 342.4L 442.4 341.6z"/>
<path style="stroke:none; fill:#f65d01" d="M 379.2 342.4L 380 343.2L 379.2 342.4z"/>
<path style="stroke:none; fill:#f55201" d="M 440.8 342.4L 441.6 343.2L 440.8 342.4z"/>
<path style="stroke:none; fill:#f66601" d="M 380.8 343.2L 381.6 344L 380.8 343.2z"/>
<path style="stroke:none; fill:#f65d01" d="M 439.2 343.2L 440 344L 439.2 343.2z"/>
<path style="stroke:none; fill:#f86e01" d="M 437.6 344L 438.4 344.8L 437.6 344z"/>
<path style="stroke:none; fill:#f44901" d="M 389.334 346.666C 388.978 347.022 389.822 346.978 389.866 346.934C 390.222 346.578 389.378 346.622 389.334 346.666z"/>
<path style="stroke:none; fill:#f47501" d="M 430.934 346.666C 430.578 347.022 431.422 346.978 431.466 346.934C 431.822 346.578 430.978 346.622 430.934 346.666z"/>
<path style="stroke:none; fill:#ee2f01" d="M 392.534 347.466C 392.178 347.822 393.022 347.778 393.066 347.734C 393.422 347.378 392.578 347.422 392.534 347.466z"/>
<path style="stroke:none; fill:#ef9101" d="M 428.534 347.466C 428.178 347.822 429.022 347.778 429.066 347.734C 429.422 347.378 428.578 347.422 428.534 347.466z"/>
<path style="stroke:none; fill:#f44901" d="M 395.734 348.266C 395.378 348.622 396.222 348.578 396.266 348.534C 396.622 348.178 395.778 348.222 395.734 348.266z"/>
<path style="stroke:none; fill:#f66601" d="M 424.534 348.266C 424.178 348.622 425.022 348.578 425.066 348.534C 425.422 348.178 424.578 348.222 424.534 348.266z"/>
<path style="stroke:none; fill:#f88301" d="M 398.934 349.066C 398.578 349.422 399.422 349.378 399.466 349.334C 399.822 348.978 398.978 349.022 398.934 349.066z"/>
<path style="stroke:none; fill:#f44901" d="M 400 348.8L 400 349.6L 402.4 349.6C 401.402 349.052 401.162 349.001 400 348.8z"/>
<path style="stroke:none; fill:#ee2f01" d="M 417.6 348.8L 417.6 349.6L 420 349.6C 419.002 349.052 418.762 349.001 417.6 348.8z"/>
<path style="stroke:none; fill:#f87901" d="M 420 348.8L 420 349.6L 422.4 349.6C 421.402 349.052 421.162 349.001 420 348.8z"/>
<path style="stroke:none; fill:#f47501" d="M 404.8 349.6L 404.8 350.4L 414.4 350.4C 411.442 349.158 407.986 349.6 404.8 349.6z"/>
<path style="stroke:none; fill:#f8db5b" d="M 0.8 611.2L 0.8 612L 820 612C 814.08 609.516 804.808 611.2 798.4 611.2L 750.4 611.2L 582.4 611.2L 0.8 611.2z"/>
</g>
</svg>